<?xml version="1.0"?>
<svg xmlns="http://www.w3.org/2000/svg" xmlns:xlink="http://www.w3.org/1999/xlink" version="1.1" viewBox="0 0 192 192" width="50px" height="50px"><g fill="none" fill-rule="nonzero" stroke="none" stroke-width="1" stroke-linecap="butt" stroke-linejoin="miter" stroke-miterlimit="10" stroke-dasharray="" stroke-dashoffset="0" font-family="none" font-weight="none" font-size="none" text-anchor="none" style="mix-blend-mode: normal"><path d="M0,192v-192h192v192z" fill="none"/><g fill="#ffffff"><path d="M96,11.52c-46.5792,0 -84.48,37.9008 -84.48,84.48c0,46.5792 37.9008,84.48 84.48,84.48c46.5792,0 84.48,-37.9008 84.48,-84.48c0,-46.5792 -37.9008,-84.48 -84.48,-84.48zM129.4464,123.9936c1.4976,1.4976 1.4976,3.9552 0,5.4528c-0.768,0.7296 -1.728,1.1136 -2.7264,1.1136c-0.9984,0 -1.9584,-0.384 -2.7264,-1.1136l-27.9936,-27.9936l-27.9936,27.9936c-0.768,0.7296 -1.728,1.1136 -2.7264,1.1136c-0.9984,0 -1.9584,-0.384 -2.7264,-1.1136c-1.4976,-1.4976 -1.4976,-3.9552 0,-5.4528l27.9936,-27.9936l-27.9936,-27.9936c-1.4976,-1.4976 -1.4976,-3.9552 0,-5.4528c1.4976,-1.4976 3.9552,-1.4976 5.4528,0l27.9936,27.9936l27.9936,-27.9936c1.4976,-1.4976 3.9552,-1.4976 5.4528,0c1.4976,1.4976 1.4976,3.9552 0,5.4528l-27.9936,27.9936z"/></g></g></svg>
